<?xml version="1.0" encoding="UTF-8"?>
<!DOCTYPE svg PUBLIC "-//W3C//DTD SVG 1.1//EN" "http://www.w3.org/Graphics/SVG/1.1/DTD/svg11.dtd">
<svg xmlns="http://www.w3.org/2000/svg" version="1.1" width="1466px" height="368px" style="shape-rendering:geometricPrecision; text-rendering:geometricPrecision; image-rendering:optimizeQuality; fill-rule:evenodd; clip-rule:evenodd" xmlns:xlink="http://www.w3.org/1999/xlink">
<g><path style="opacity:1" fill="#e2bb9e" d="M -0.5,-0.5 C 70.8333,-0.5 142.167,-0.5 213.5,-0.5C 193.631,65.984 205.131,126.317 248,180.5C 263.397,198.084 281.23,212.417 301.5,223.5C 282.568,271.653 282.902,319.653 302.5,367.5C 201.5,367.5 100.5,367.5 -0.5,367.5C -0.5,244.833 -0.5,122.167 -0.5,-0.5 Z"/></g>
<g><path style="opacity:1" fill="#e5bea1" d="M 213.5,-0.5 C 293.5,-0.5 373.5,-0.5 453.5,-0.5C 428.825,34.8472 417.158,74.1805 418.5,117.5C 363.985,135.016 325.319,170.016 302.5,222.5C 301.833,222.5 301.5,222.833 301.5,223.5C 281.23,212.417 263.397,198.084 248,180.5C 205.131,126.317 193.631,65.984 213.5,-0.5 Z"/></g>
<g><path style="opacity:1" fill="#e7c4a9" d="M 453.5,-0.5 C 491.167,-0.5 528.833,-0.5 566.5,-0.5C 580.199,43.9077 578.866,87.9077 562.5,131.5C 562.167,131.5 561.833,131.5 561.5,131.5C 515.742,107.638 468.075,102.972 418.5,117.5C 417.158,74.1805 428.825,34.8472 453.5,-0.5 Z"/></g>
<g><path style="opacity:1" fill="#e4c0a6" d="M 566.5,-0.5 C 629.167,-0.5 691.833,-0.5 754.5,-0.5C 793.754,57.4934 800.254,119.16 774,184.5C 752.183,231.154 717.349,263.821 669.5,282.5C 665.991,284.226 662.325,285.559 658.5,286.5C 654.917,224.844 627.917,176.011 577.5,140C 572.473,137.155 567.473,134.321 562.5,131.5C 578.866,87.9077 580.199,43.9077 566.5,-0.5 Z"/></g>
<g><path style="opacity:1" fill="#e2bb9e" d="M 754.5,-0.5 C 991.5,-0.5 1228.5,-0.5 1465.5,-0.5C 1465.5,122.167 1465.5,244.833 1465.5,367.5C 1191.83,367.5 918.167,367.5 644.5,367.5C 648.795,356.614 652.462,345.614 655.5,334.5C 663.268,318.103 667.934,300.77 669.5,282.5C 717.349,263.821 752.183,231.154 774,184.5C 800.254,119.16 793.754,57.4934 754.5,-0.5 Z"/></g>
<g><path style="opacity:1" fill="#e9c7ae" d="M 561.5,131.5 C 544.445,171.227 517.112,201.894 479.5,223.5C 475.029,226.072 470.363,228.072 465.5,229.5C 462.944,228.457 460.777,226.79 459,224.5C 434.586,193.108 421.086,157.441 418.5,117.5C 468.075,102.972 515.742,107.638 561.5,131.5 Z"/></g>
<g><path style="opacity:1" fill="#e8c3a9" d="M 418.5,117.5 C 421.086,157.441 434.586,193.108 459,224.5C 460.777,226.79 462.944,228.457 465.5,229.5C 465.167,230.167 464.833,230.833 464.5,231.5C 452.595,234.302 440.929,237.802 429.5,242C 389.951,248.9 351.617,244.9 314.5,230C 310.268,227.725 306.268,225.225 302.5,222.5C 325.319,170.016 363.985,135.016 418.5,117.5 Z"/></g>
<g><path style="opacity:1" fill="#e6c4ac" d="M 561.5,131.5 C 561.833,131.5 562.167,131.5 562.5,131.5C 567.473,134.321 572.473,137.155 577.5,140C 627.917,176.011 654.917,224.844 658.5,286.5C 592.917,304.352 533.917,291.852 481.5,249C 475.63,243.298 469.964,237.465 464.5,231.5C 464.833,230.833 465.167,230.167 465.5,229.5C 470.363,228.072 475.029,226.072 479.5,223.5C 517.112,201.894 544.445,171.227 561.5,131.5 Z"/></g>
<g><path style="opacity:1" fill="#e4c0a5" d="M 302.5,222.5 C 306.268,225.225 310.268,227.725 314.5,230C 351.617,244.9 389.951,248.9 429.5,242C 440.929,237.802 452.595,234.302 464.5,231.5C 469.964,237.465 475.63,243.298 481.5,249C 533.917,291.852 592.917,304.352 658.5,286.5C 659.221,302.574 658.221,318.574 655.5,334.5C 652.462,345.614 648.795,356.614 644.5,367.5C 530.5,367.5 416.5,367.5 302.5,367.5C 282.902,319.653 282.568,271.653 301.5,223.5C 301.5,222.833 301.833,222.5 302.5,222.5 Z"/></g>
<g><path style="opacity:1" fill="#e3bc9f" d="M 669.5,282.5 C 667.934,300.77 663.268,318.103 655.5,334.5C 658.221,318.574 659.221,302.574 658.5,286.5C 662.325,285.559 665.991,284.226 669.5,282.5 Z"/></g>
</svg>
