<svg width="50" height="50" viewBox="0 0 50 50" fill="none" xmlns="http://www.w3.org/2000/svg">
<path d="M 39.6 16.7 C 40.7 16.7 41.7 17.1 42.5 17.9 C 43.3 18.7 43.7 19.7 43.7 20.8 V 34.9 C 45 36.1 45.8 37.7 45.8 39.6 C 45.8 43 43 45.8 39.6 45.8 C 36.1 45.8 33.3 43 33.3 39.6 C 33.3 37.7 34.1 36.1 35.4 34.9 V 20.8 C 35.4 18.5 37.3 16.7 39.6 16.7 Z M 39.6 18.8 C 38.4 18.8 37.5 19.7 37.5 20.8 V 22.9 H 41.7 V 20.8 C 41.7 19.7 40.7 18.8 39.6 18.8 Z M 10.4 41.7 V 25 H 4.2 L 25 6.3 L 34.2 14.5 C 33.2 15.3 32.5 16.3 32 17.3 C 31.5 18.4 31.2 19.6 31.2 20.8 V 33.3 C 29.9 35.1 29.2 37.2 29.2 39.6 L 29.4 41.7 H 10.4 Z" fill="#a50b25"/>
</svg>
